<mxfile host="app.diagrams.net" modified="2023-11-20T07:13:39.480Z" agent="Mozilla/5.0 (Windows NT 10.0; Win64; x64) AppleWebKit/537.36 (KHTML, like Gecko) Chrome/108.0.0.0 Safari/537.36" etag="IagzE3348KtLz4hWeKG9" version="22.1.3" type="github">
  <diagram id="C5RBs43oDa-KdzZeNtuy" name="Page-1">
    <mxGraphModel dx="1434" dy="1933" grid="1" gridSize="10" guides="1" tooltips="1" connect="1" arrows="1" fold="1" page="1" pageScale="1" pageWidth="827" pageHeight="1169" math="0" shadow="0">
      <root>
        <mxCell id="WIyWlLk6GJQsqaUBKTNV-0" />
        <mxCell id="WIyWlLk6GJQsqaUBKTNV-1" parent="WIyWlLk6GJQsqaUBKTNV-0" />
        <mxCell id="WIyWlLk6GJQsqaUBKTNV-2" value="" style="rounded=0;html=1;jettySize=auto;orthogonalLoop=1;fontSize=11;endArrow=block;endFill=0;endSize=8;strokeWidth=1;shadow=0;labelBackgroundColor=none;edgeStyle=orthogonalEdgeStyle;" parent="WIyWlLk6GJQsqaUBKTNV-1" source="WIyWlLk6GJQsqaUBKTNV-3" target="WIyWlLk6GJQsqaUBKTNV-6" edge="1">
          <mxGeometry relative="1" as="geometry" />
        </mxCell>
        <mxCell id="WIyWlLk6GJQsqaUBKTNV-3" value="开始" style="rounded=1;whiteSpace=wrap;html=1;fontSize=12;glass=0;strokeWidth=1;shadow=0;" parent="WIyWlLk6GJQsqaUBKTNV-1" vertex="1">
          <mxGeometry x="161" y="80" width="120" height="40" as="geometry" />
        </mxCell>
        <mxCell id="WIyWlLk6GJQsqaUBKTNV-5" value="No" style="edgeStyle=orthogonalEdgeStyle;rounded=0;html=1;jettySize=auto;orthogonalLoop=1;fontSize=11;endArrow=block;endFill=0;endSize=8;strokeWidth=1;shadow=0;labelBackgroundColor=none;" parent="WIyWlLk6GJQsqaUBKTNV-1" source="WIyWlLk6GJQsqaUBKTNV-6" target="WIyWlLk6GJQsqaUBKTNV-7" edge="1">
          <mxGeometry y="10" relative="1" as="geometry">
            <mxPoint as="offset" />
          </mxGeometry>
        </mxCell>
        <mxCell id="yV7xnRltcVBfqffQBXNB-1" style="edgeStyle=orthogonalEdgeStyle;rounded=0;orthogonalLoop=1;jettySize=auto;html=1;" edge="1" parent="WIyWlLk6GJQsqaUBKTNV-1" source="WIyWlLk6GJQsqaUBKTNV-6" target="yV7xnRltcVBfqffQBXNB-0">
          <mxGeometry relative="1" as="geometry" />
        </mxCell>
        <mxCell id="yV7xnRltcVBfqffQBXNB-2" value="Yes" style="edgeLabel;html=1;align=center;verticalAlign=middle;resizable=0;points=[];" vertex="1" connectable="0" parent="yV7xnRltcVBfqffQBXNB-1">
          <mxGeometry x="-0.3" y="1" relative="1" as="geometry">
            <mxPoint as="offset" />
          </mxGeometry>
        </mxCell>
        <mxCell id="WIyWlLk6GJQsqaUBKTNV-6" value="同步校验" style="rhombus;whiteSpace=wrap;html=1;shadow=0;fontFamily=Helvetica;fontSize=12;align=center;strokeWidth=1;spacing=6;spacingTop=-4;" parent="WIyWlLk6GJQsqaUBKTNV-1" vertex="1">
          <mxGeometry x="171" y="170" width="100" height="80" as="geometry" />
        </mxCell>
        <mxCell id="yV7xnRltcVBfqffQBXNB-3" style="edgeStyle=orthogonalEdgeStyle;rounded=0;orthogonalLoop=1;jettySize=auto;html=1;entryX=1;entryY=0.75;entryDx=0;entryDy=0;" edge="1" parent="WIyWlLk6GJQsqaUBKTNV-1" source="WIyWlLk6GJQsqaUBKTNV-7" target="yV7xnRltcVBfqffQBXNB-0">
          <mxGeometry relative="1" as="geometry">
            <Array as="points">
              <mxPoint x="370" y="340" />
            </Array>
          </mxGeometry>
        </mxCell>
        <mxCell id="WIyWlLk6GJQsqaUBKTNV-7" value="起一个线程" style="rounded=1;whiteSpace=wrap;html=1;fontSize=12;glass=0;strokeWidth=1;shadow=0;" parent="WIyWlLk6GJQsqaUBKTNV-1" vertex="1">
          <mxGeometry x="320" y="190" width="120" height="40" as="geometry" />
        </mxCell>
        <mxCell id="yV7xnRltcVBfqffQBXNB-7" value="" style="edgeStyle=orthogonalEdgeStyle;rounded=0;orthogonalLoop=1;jettySize=auto;html=1;" edge="1" parent="WIyWlLk6GJQsqaUBKTNV-1" source="WIyWlLk6GJQsqaUBKTNV-11" target="yV7xnRltcVBfqffQBXNB-6">
          <mxGeometry relative="1" as="geometry" />
        </mxCell>
        <mxCell id="WIyWlLk6GJQsqaUBKTNV-11" value="每次请求50个id" style="rounded=1;whiteSpace=wrap;html=1;fontSize=12;glass=0;strokeWidth=1;shadow=0;" parent="WIyWlLk6GJQsqaUBKTNV-1" vertex="1">
          <mxGeometry x="161" y="420" width="120" height="40" as="geometry" />
        </mxCell>
        <mxCell id="yV7xnRltcVBfqffQBXNB-5" value="" style="edgeStyle=orthogonalEdgeStyle;rounded=0;orthogonalLoop=1;jettySize=auto;html=1;" edge="1" parent="WIyWlLk6GJQsqaUBKTNV-1" source="yV7xnRltcVBfqffQBXNB-0" target="WIyWlLk6GJQsqaUBKTNV-11">
          <mxGeometry relative="1" as="geometry" />
        </mxCell>
        <mxCell id="yV7xnRltcVBfqffQBXNB-0" value="调用Youtube Api" style="rounded=1;whiteSpace=wrap;html=1;fontSize=12;glass=0;strokeWidth=1;shadow=0;" vertex="1" parent="WIyWlLk6GJQsqaUBKTNV-1">
          <mxGeometry x="161" y="310" width="120" height="40" as="geometry" />
        </mxCell>
        <mxCell id="yV7xnRltcVBfqffQBXNB-4" value="&lt;h1&gt;wrc_launcher_resource_service&lt;/h1&gt;/resource/available/multiple接口修改逻辑&lt;span style=&quot;background-color: initial;&quot;&gt;.&lt;/span&gt;" style="text;html=1;strokeColor=none;fillColor=none;spacing=5;spacingTop=-20;whiteSpace=wrap;overflow=hidden;rounded=0;" vertex="1" parent="WIyWlLk6GJQsqaUBKTNV-1">
          <mxGeometry x="20" y="-70" width="430" height="120" as="geometry" />
        </mxCell>
        <mxCell id="yV7xnRltcVBfqffQBXNB-15" value="" style="edgeStyle=orthogonalEdgeStyle;rounded=0;orthogonalLoop=1;jettySize=auto;html=1;" edge="1" parent="WIyWlLk6GJQsqaUBKTNV-1" source="yV7xnRltcVBfqffQBXNB-6" target="yV7xnRltcVBfqffQBXNB-14">
          <mxGeometry relative="1" as="geometry" />
        </mxCell>
        <mxCell id="yV7xnRltcVBfqffQBXNB-6" value="返回的结果写入本地cache" style="whiteSpace=wrap;html=1;rounded=1;glass=0;strokeWidth=1;shadow=0;" vertex="1" parent="WIyWlLk6GJQsqaUBKTNV-1">
          <mxGeometry x="161" y="530" width="120" height="60" as="geometry" />
        </mxCell>
        <mxCell id="yV7xnRltcVBfqffQBXNB-18" value="" style="edgeStyle=orthogonalEdgeStyle;rounded=0;orthogonalLoop=1;jettySize=auto;html=1;" edge="1" parent="WIyWlLk6GJQsqaUBKTNV-1" source="yV7xnRltcVBfqffQBXNB-14" target="yV7xnRltcVBfqffQBXNB-17">
          <mxGeometry relative="1" as="geometry" />
        </mxCell>
        <mxCell id="yV7xnRltcVBfqffQBXNB-14" value="根据id获取cache缓存" style="whiteSpace=wrap;html=1;rounded=1;glass=0;strokeWidth=1;shadow=0;" vertex="1" parent="WIyWlLk6GJQsqaUBKTNV-1">
          <mxGeometry x="161" y="670" width="120" height="60" as="geometry" />
        </mxCell>
        <mxCell id="yV7xnRltcVBfqffQBXNB-23" value="" style="edgeStyle=orthogonalEdgeStyle;rounded=0;orthogonalLoop=1;jettySize=auto;html=1;" edge="1" parent="WIyWlLk6GJQsqaUBKTNV-1" source="yV7xnRltcVBfqffQBXNB-17" target="yV7xnRltcVBfqffQBXNB-19">
          <mxGeometry relative="1" as="geometry" />
        </mxCell>
        <mxCell id="yV7xnRltcVBfqffQBXNB-24" value="No" style="edgeLabel;html=1;align=center;verticalAlign=middle;resizable=0;points=[];" vertex="1" connectable="0" parent="yV7xnRltcVBfqffQBXNB-23">
          <mxGeometry x="-0.2269" relative="1" as="geometry">
            <mxPoint as="offset" />
          </mxGeometry>
        </mxCell>
        <mxCell id="yV7xnRltcVBfqffQBXNB-26" value="" style="edgeStyle=orthogonalEdgeStyle;rounded=0;orthogonalLoop=1;jettySize=auto;html=1;" edge="1" parent="WIyWlLk6GJQsqaUBKTNV-1" source="yV7xnRltcVBfqffQBXNB-17" target="yV7xnRltcVBfqffQBXNB-25">
          <mxGeometry relative="1" as="geometry" />
        </mxCell>
        <mxCell id="yV7xnRltcVBfqffQBXNB-30" value="Yes" style="edgeLabel;html=1;align=center;verticalAlign=middle;resizable=0;points=[];" vertex="1" connectable="0" parent="yV7xnRltcVBfqffQBXNB-26">
          <mxGeometry x="-0.075" y="2" relative="1" as="geometry">
            <mxPoint as="offset" />
          </mxGeometry>
        </mxCell>
        <mxCell id="yV7xnRltcVBfqffQBXNB-17" value="缓存存在" style="rhombus;whiteSpace=wrap;html=1;rounded=1;glass=0;strokeWidth=1;shadow=0;" vertex="1" parent="WIyWlLk6GJQsqaUBKTNV-1">
          <mxGeometry x="181" y="800" width="80" height="80" as="geometry" />
        </mxCell>
        <mxCell id="yV7xnRltcVBfqffQBXNB-53" style="edgeStyle=orthogonalEdgeStyle;rounded=0;orthogonalLoop=1;jettySize=auto;html=1;entryX=0;entryY=0.5;entryDx=0;entryDy=0;" edge="1" parent="WIyWlLk6GJQsqaUBKTNV-1" source="yV7xnRltcVBfqffQBXNB-19" target="yV7xnRltcVBfqffQBXNB-50">
          <mxGeometry relative="1" as="geometry">
            <Array as="points">
              <mxPoint x="80" y="1440" />
            </Array>
          </mxGeometry>
        </mxCell>
        <mxCell id="yV7xnRltcVBfqffQBXNB-19" value="返回校验通过" style="whiteSpace=wrap;html=1;rounded=1;glass=0;strokeWidth=1;shadow=0;" vertex="1" parent="WIyWlLk6GJQsqaUBKTNV-1">
          <mxGeometry x="20" y="810" width="120" height="60" as="geometry" />
        </mxCell>
        <mxCell id="yV7xnRltcVBfqffQBXNB-28" value="" style="edgeStyle=orthogonalEdgeStyle;rounded=0;orthogonalLoop=1;jettySize=auto;html=1;" edge="1" parent="WIyWlLk6GJQsqaUBKTNV-1" source="yV7xnRltcVBfqffQBXNB-25" target="yV7xnRltcVBfqffQBXNB-27">
          <mxGeometry relative="1" as="geometry" />
        </mxCell>
        <mxCell id="yV7xnRltcVBfqffQBXNB-29" value="Yes" style="edgeLabel;html=1;align=center;verticalAlign=middle;resizable=0;points=[];" vertex="1" connectable="0" parent="yV7xnRltcVBfqffQBXNB-28">
          <mxGeometry x="-0.0889" y="1" relative="1" as="geometry">
            <mxPoint as="offset" />
          </mxGeometry>
        </mxCell>
        <mxCell id="yV7xnRltcVBfqffQBXNB-35" value="" style="edgeStyle=orthogonalEdgeStyle;rounded=0;orthogonalLoop=1;jettySize=auto;html=1;" edge="1" parent="WIyWlLk6GJQsqaUBKTNV-1" source="yV7xnRltcVBfqffQBXNB-25" target="yV7xnRltcVBfqffQBXNB-34">
          <mxGeometry relative="1" as="geometry" />
        </mxCell>
        <mxCell id="yV7xnRltcVBfqffQBXNB-36" value="No" style="edgeLabel;html=1;align=center;verticalAlign=middle;resizable=0;points=[];" vertex="1" connectable="0" parent="yV7xnRltcVBfqffQBXNB-35">
          <mxGeometry y="3" relative="1" as="geometry">
            <mxPoint as="offset" />
          </mxGeometry>
        </mxCell>
        <mxCell id="yV7xnRltcVBfqffQBXNB-25" value="缓存里的限制国家为空" style="rhombus;whiteSpace=wrap;html=1;rounded=1;glass=0;strokeWidth=1;shadow=0;" vertex="1" parent="WIyWlLk6GJQsqaUBKTNV-1">
          <mxGeometry x="181" y="960" width="80" height="80" as="geometry" />
        </mxCell>
        <mxCell id="yV7xnRltcVBfqffQBXNB-43" value="" style="edgeStyle=orthogonalEdgeStyle;rounded=0;orthogonalLoop=1;jettySize=auto;html=1;" edge="1" parent="WIyWlLk6GJQsqaUBKTNV-1" source="yV7xnRltcVBfqffQBXNB-27" target="yV7xnRltcVBfqffQBXNB-25">
          <mxGeometry relative="1" as="geometry" />
        </mxCell>
        <mxCell id="yV7xnRltcVBfqffQBXNB-45" value="" style="edgeStyle=orthogonalEdgeStyle;rounded=0;orthogonalLoop=1;jettySize=auto;html=1;" edge="1" parent="WIyWlLk6GJQsqaUBKTNV-1" source="yV7xnRltcVBfqffQBXNB-27" target="yV7xnRltcVBfqffQBXNB-44">
          <mxGeometry relative="1" as="geometry" />
        </mxCell>
        <mxCell id="yV7xnRltcVBfqffQBXNB-27" value="校验不通过，并返回资源失效的状态。" style="whiteSpace=wrap;html=1;rounded=1;glass=0;strokeWidth=1;shadow=0;" vertex="1" parent="WIyWlLk6GJQsqaUBKTNV-1">
          <mxGeometry x="161" y="1130" width="120" height="60" as="geometry" />
        </mxCell>
        <mxCell id="yV7xnRltcVBfqffQBXNB-38" value="" style="edgeStyle=orthogonalEdgeStyle;rounded=0;orthogonalLoop=1;jettySize=auto;html=1;" edge="1" parent="WIyWlLk6GJQsqaUBKTNV-1" source="yV7xnRltcVBfqffQBXNB-34" target="yV7xnRltcVBfqffQBXNB-37">
          <mxGeometry relative="1" as="geometry" />
        </mxCell>
        <mxCell id="yV7xnRltcVBfqffQBXNB-39" value="No" style="edgeLabel;html=1;align=center;verticalAlign=middle;resizable=0;points=[];" vertex="1" connectable="0" parent="yV7xnRltcVBfqffQBXNB-38">
          <mxGeometry x="-0.0333" y="-3" relative="1" as="geometry">
            <mxPoint as="offset" />
          </mxGeometry>
        </mxCell>
        <mxCell id="yV7xnRltcVBfqffQBXNB-41" value="" style="edgeStyle=orthogonalEdgeStyle;rounded=0;orthogonalLoop=1;jettySize=auto;html=1;" edge="1" parent="WIyWlLk6GJQsqaUBKTNV-1" source="yV7xnRltcVBfqffQBXNB-34" target="yV7xnRltcVBfqffQBXNB-40">
          <mxGeometry relative="1" as="geometry" />
        </mxCell>
        <mxCell id="yV7xnRltcVBfqffQBXNB-42" value="Yes" style="edgeLabel;html=1;align=center;verticalAlign=middle;resizable=0;points=[];" vertex="1" connectable="0" parent="yV7xnRltcVBfqffQBXNB-41">
          <mxGeometry x="-0.0667" y="3" relative="1" as="geometry">
            <mxPoint as="offset" />
          </mxGeometry>
        </mxCell>
        <mxCell id="yV7xnRltcVBfqffQBXNB-34" value="限制国家包含请求的国家" style="rhombus;whiteSpace=wrap;html=1;rounded=1;glass=0;strokeWidth=1;shadow=0;" vertex="1" parent="WIyWlLk6GJQsqaUBKTNV-1">
          <mxGeometry x="341" y="960" width="80" height="80" as="geometry" />
        </mxCell>
        <mxCell id="yV7xnRltcVBfqffQBXNB-47" value="" style="edgeStyle=orthogonalEdgeStyle;rounded=0;orthogonalLoop=1;jettySize=auto;html=1;" edge="1" parent="WIyWlLk6GJQsqaUBKTNV-1" source="yV7xnRltcVBfqffQBXNB-37" target="yV7xnRltcVBfqffQBXNB-46">
          <mxGeometry relative="1" as="geometry" />
        </mxCell>
        <mxCell id="yV7xnRltcVBfqffQBXNB-37" value="校验不通过，并返回资源限制国家不正确的状态。" style="whiteSpace=wrap;html=1;rounded=1;glass=0;strokeWidth=1;shadow=0;" vertex="1" parent="WIyWlLk6GJQsqaUBKTNV-1">
          <mxGeometry x="481" y="970" width="120" height="60" as="geometry" />
        </mxCell>
        <mxCell id="yV7xnRltcVBfqffQBXNB-54" style="edgeStyle=orthogonalEdgeStyle;rounded=0;orthogonalLoop=1;jettySize=auto;html=1;entryX=1;entryY=0.5;entryDx=0;entryDy=0;" edge="1" parent="WIyWlLk6GJQsqaUBKTNV-1" source="yV7xnRltcVBfqffQBXNB-40" target="yV7xnRltcVBfqffQBXNB-50">
          <mxGeometry relative="1" as="geometry">
            <Array as="points">
              <mxPoint x="380" y="1440" />
            </Array>
          </mxGeometry>
        </mxCell>
        <mxCell id="yV7xnRltcVBfqffQBXNB-40" value="返回校验通过" style="whiteSpace=wrap;html=1;rounded=1;glass=0;strokeWidth=1;shadow=0;" vertex="1" parent="WIyWlLk6GJQsqaUBKTNV-1">
          <mxGeometry x="321" y="1130" width="120" height="60" as="geometry" />
        </mxCell>
        <mxCell id="yV7xnRltcVBfqffQBXNB-51" value="" style="edgeStyle=orthogonalEdgeStyle;rounded=0;orthogonalLoop=1;jettySize=auto;html=1;" edge="1" parent="WIyWlLk6GJQsqaUBKTNV-1" source="yV7xnRltcVBfqffQBXNB-44" target="yV7xnRltcVBfqffQBXNB-50">
          <mxGeometry relative="1" as="geometry" />
        </mxCell>
        <mxCell id="yV7xnRltcVBfqffQBXNB-44" value="资源失效，进行逻辑删除" style="whiteSpace=wrap;html=1;rounded=1;glass=0;strokeWidth=1;shadow=0;" vertex="1" parent="WIyWlLk6GJQsqaUBKTNV-1">
          <mxGeometry x="161" y="1270" width="120" height="60" as="geometry" />
        </mxCell>
        <mxCell id="yV7xnRltcVBfqffQBXNB-55" style="edgeStyle=orthogonalEdgeStyle;rounded=0;orthogonalLoop=1;jettySize=auto;html=1;entryX=1;entryY=0.5;entryDx=0;entryDy=0;" edge="1" parent="WIyWlLk6GJQsqaUBKTNV-1" source="yV7xnRltcVBfqffQBXNB-46" target="yV7xnRltcVBfqffQBXNB-50">
          <mxGeometry relative="1" as="geometry">
            <Array as="points">
              <mxPoint x="541" y="1440" />
            </Array>
          </mxGeometry>
        </mxCell>
        <mxCell id="yV7xnRltcVBfqffQBXNB-46" value="修正资源的限制国家restrictions字段" style="whiteSpace=wrap;html=1;rounded=1;glass=0;strokeWidth=1;shadow=0;" vertex="1" parent="WIyWlLk6GJQsqaUBKTNV-1">
          <mxGeometry x="481" y="1140" width="120" height="60" as="geometry" />
        </mxCell>
        <mxCell id="yV7xnRltcVBfqffQBXNB-50" value="结束" style="whiteSpace=wrap;html=1;rounded=1;glass=0;strokeWidth=1;shadow=0;" vertex="1" parent="WIyWlLk6GJQsqaUBKTNV-1">
          <mxGeometry x="161" y="1410" width="120" height="60" as="geometry" />
        </mxCell>
      </root>
    </mxGraphModel>
  </diagram>
</mxfile>
